<?xml version="1.0" encoding="UTF-8"?>
<svg width="32" height="32" viewBox="0 0 32 32" fill="none" xmlns="http://www.w3.org/2000/svg">
  <!-- Фон -->
  <rect width="32" height="32" rx="6" fill="#1890FF"/>
  
  <!-- Буква U -->
  <path d="M9 7C9 6.44772 9.44772 6 10 6H12C12.5523 6 13 6.44772 13 7V18C13 19.6569 14.3431 21 16 21C17.6569 21 19 19.6569 19 18V7C19 6.44772 19.4477 6 20 6H22C22.5523 6 23 6.44772 23 7V18C23 21.866 19.866 25 16 25C12.134 25 9 21.866 9 18V7Z" fill="white"/>
  
  <!-- Иконка инструмента (гаечный ключ) -->
  <path d="M22.5 10.5L26.5 6.5M24.5 8.5L25.5 9.5M20.5 12.5L21.5 11.5M22.5 10.5C21.5 9.5 19.9142 9.5 18.9142 10.5C17.9142 11.5 17.9142 13.0858 18.9142 14.0858C19.9142 15.0858 21.5 15.0858 22.5 14.0858C23.5 13.0858 23.5 11.5 22.5 10.5Z" stroke="white" stroke-width="1.2" stroke-linecap="round" stroke-linejoin="round"/>
</svg> 